<?xml version="1.0" standalone="no"?>
<!DOCTYPE svg PUBLIC "-//W3C//DTD SVG 20010904//EN"
 "http://www.w3.org/TR/2001/REC-SVG-20010904/DTD/svg10.dtd">
<svg version="1.0" xmlns="http://www.w3.org/2000/svg"
 width="700.000000pt" height="700.000000pt" viewBox="0 0 700.000000 700.000000"
 preserveAspectRatio="xMidYMid meet">
<metadata>
Created by potrace 1.11, written by Peter Selinger 2001-2013
</metadata>
<g transform="translate(0.000000,700.000000) scale(0.100000,-0.100000)"
fill="#000000" stroke="none">
<path d="M3308 6995 c-2 -1 -41 -5 -88 -9 -124 -10 -176 -16 -265 -31 -44 -8
-93 -16 -110 -18 -16 -3 -81 -17 -143 -32 -62 -15 -118 -28 -125 -29 -6 -1
-68 -21 -137 -43 -111 -36 -176 -60 -260 -96 -14 -5 -31 -11 -38 -13 -26 -5
-289 -137 -391 -196 -346 -200 -695 -492 -927 -776 -10 -13 -27 -33 -38 -45
-10 -12 -30 -38 -45 -57 -14 -19 -28 -37 -31 -40 -4 -3 -40 -54 -82 -115 -204
-297 -367 -630 -471 -965 -57 -185 -93 -351 -132 -620 -18 -125 -25 -489 -12
-670 16 -233 60 -478 129 -715 22 -77 52 -169 65 -205 14 -36 34 -90 46 -120
11 -30 42 -102 69 -159 26 -57 48 -104 48 -106 0 -1 27 -51 60 -110 33 -59 60
-109 60 -111 0 -1 36 -56 79 -122 91 -137 186 -264 280 -372 81 -94 319 -332
386 -385 27 -22 57 -48 67 -58 10 -9 73 -57 141 -105 378 -271 754 -447 1199
-561 122 -31 239 -55 255 -53 2 1 17 -3 34 -8 17 -5 57 -12 88 -15 31 -3 67
-8 81 -10 71 -12 206 -19 395 -19 269 -1 383 8 610 49 178 32 178 32 285 61
596 160 1123 459 1559 887 572 561 926 1282 1027 2092 25 198 24 630 0 800 -3
17 -7 53 -10 80 -10 84 -54 300 -87 423 -90 334 -221 642 -399 932 -76 125
-198 298 -248 355 -15 17 -57 66 -93 110 -75 90 -277 289 -389 382 -300 250
-670 468 -1010 594 -207 77 -538 164 -695 183 -27 4 -61 8 -75 11 -31 5 -95
13 -180 21 -62 6 -477 13 -482 9z m482 -629 c19 -3 58 -8 85 -11 50 -6 120
-18 205 -36 25 -5 55 -11 67 -14 84 -15 359 -106 478 -157 794 -342 1368 -979
1627 -1808 35 -112 74 -275 83 -345 4 -27 9 -52 10 -55 2 -3 7 -33 10 -65 4
-33 11 -89 15 -125 9 -72 7 -510 -2 -525 -3 -6 -9 -43 -12 -84 -4 -41 -9 -77
-11 -81 -2 -3 -6 -26 -10 -50 -37 -255 -150 -590 -286 -847 -362 -688 -987
-1202 -1730 -1423 -56 -17 -112 -32 -123 -35 -320 -67 -425 -79 -686 -80 -165
0 -329 8 -385 20 -21 5 -77 13 -135 21 -19 2 -89 17 -156 34 -698 169 -1301
582 -1706 1170 -35 52 -73 111 -84 130 -10 19 -21 37 -24 40 -23 23 -148 280
-200 410 -66 167 -135 409 -155 545 -4 28 -8 57 -10 65 -1 8 -5 42 -9 75 -4
33 -10 71 -12 85 -9 47 -12 424 -4 510 53 570 241 1063 576 1508 117 155 275
324 410 437 32 28 66 56 74 64 34 32 201 151 289 205 187 115 381 207 591 279
108 37 307 92 370 101 19 3 46 8 60 11 108 25 333 42 535 39 121 -1 236 -5
255 -8z"/>
<path d="M3038 4948 l-3 -383 -220 1 c-121 0 -222 -3 -225 -7 -3 -4 -5 -149
-5 -321 l0 -313 223 -2 c123 -1 226 -3 228 -5 2 -2 4 -353 5 -779 0 -426 5
-801 10 -834 40 -261 144 -420 339 -518 132 -66 241 -89 426 -89 235 0 453 58
565 151 l33 28 -53 199 c-29 110 -59 217 -66 239 -7 22 -16 57 -20 78 -4 20
-10 37 -12 37 -3 0 -20 -9 -38 -20 -54 -34 -117 -52 -191 -55 -120 -6 -199 45
-247 161 -20 47 -21 72 -23 729 l-3 680 277 0 277 0 0 320 0 320 -265 1 c-146
1 -270 2 -277 3 -9 1 -12 90 -12 349 0 191 0 362 0 380 l-1 32 -360 0 -360 0
-2 -382z"/>
</g>
</svg>
