<svg id="icon_2" data-name="icon 2" xmlns="http://www.w3.org/2000/svg" width="600" height="600" viewBox="0 0 600 600">
  <metadata><?xpacket begin="﻿" id="W5M0MpCehiHzreSzNTczkc9d"?>
<x:xmpmeta xmlns:x="adobe:ns:meta/" x:xmptk="Adobe XMP Core 5.6-c138 79.159824, 2016/09/14-01:09:01        ">
   <rdf:RDF xmlns:rdf="http://www.w3.org/1999/02/22-rdf-syntax-ns#">
      <rdf:Description rdf:about=""/>
   </rdf:RDF>
</x:xmpmeta>
                                                                                                    
                                                                                                    
                                                                                                    
                                                                                                    
                                                                                                    
                                                                                                    
                                                                                                    
                                                                                                    
                                                                                                    
                                                                                                    
                                                                                                    
                                                                                                    
                                                                                                    
                                                                                                    
                                                                                                    
                                                                                                    
                                                                                                    
                                                                                                    
                                                                                                    
                                                                                                    
                           
<?xpacket end="w"?></metadata>
<defs>
    <style>
      .cls-1 {
        fill: #7ed2b3;
      }

      .cls-2 {
        fill: #fff;
        fill-rule: evenodd;
      }

      .cls-3 {
        fill: #06ac6a;
      }
    </style>
  </defs>
  <circle class="cls-1" cx="300" cy="300" r="300"/>
  <g>
    <path id="Rounded_Rectangle_1" data-name="Rounded Rectangle 1" class="cls-2" d="M129,181H471a10,10,0,0,1,10,10V410a10,10,0,0,1-10,10H129a10,10,0,0,1-10-10V191A10,10,0,0,1,129,181Zm27,29H443a10,10,0,0,1,10,10V382a10,10,0,0,1-10,10H156a10,10,0,0,1-10-10V220A10,10,0,0,1,156,210Z"/>
    <rect id="Rounded_Rectangle_1_copy" data-name="Rounded Rectangle 1 copy" class="cls-3" x="146" y="210" width="307" height="182" rx="10" ry="10"/>
    <path id="Rounded_Rectangle_2_copy_2" data-name="Rounded Rectangle 2 copy 2" class="cls-2" d="M394.439,275.732a22.023,22.023,0,0,1-4.581-.487l-50.194,61.7a21.963,21.963,0,1,1-39.051,4.582l-32.731-25.79a21.872,21.872,0,0,1-23.384.969L223.52,338.486a22.068,22.068,0,1,1-12.246-10.346c0.006-.007.01-0.015,0.017-0.022l23.132-24.012a21.958,21.958,0,1,1,42.415-1.679l34.289,27.018a21.657,21.657,0,0,1,15.451-1.82l49.864-61.3A21.941,21.941,0,1,1,394.439,275.732Z"/>
  </g>
</svg>
