<svg id="icon_3" data-name="icon 3" xmlns="http://www.w3.org/2000/svg" width="600" height="600" viewBox="0 0 600 600">
  <metadata><?xpacket begin="﻿" id="W5M0MpCehiHzreSzNTczkc9d"?>
<x:xmpmeta xmlns:x="adobe:ns:meta/" x:xmptk="Adobe XMP Core 5.6-c138 79.159824, 2016/09/14-01:09:01        ">
   <rdf:RDF xmlns:rdf="http://www.w3.org/1999/02/22-rdf-syntax-ns#">
      <rdf:Description rdf:about=""/>
   </rdf:RDF>
</x:xmpmeta>
                                                                                                    
                                                                                                    
                                                                                                    
                                                                                                    
                                                                                                    
                                                                                                    
                                                                                                    
                                                                                                    
                                                                                                    
                                                                                                    
                                                                                                    
                                                                                                    
                                                                                                    
                                                                                                    
                                                                                                    
                                                                                                    
                                                                                                    
                                                                                                    
                                                                                                    
                                                                                                    
                           
<?xpacket end="w"?></metadata>
<defs>
    <style>
      .cls-1, .cls-3 {
        fill: #7ed2b3;
      }

      .cls-2 {
        fill: #fff;
      }

      .cls-3, .cls-4 {
        fill-rule: evenodd;
      }

      .cls-4 {
        fill: #07ac6b;
      }
    </style>
  </defs>
  <circle class="cls-1" cx="300" cy="300" r="300"/>
  <g>
    <circle class="cls-2" cx="310" cy="301" r="119.594"/>
    <path id="Rounded_Rectangle_2_copy" data-name="Rounded Rectangle 2 copy" class="cls-3" d="M371.1,313.115H330.094a23.167,23.167,0,1,1-31.163-31.162V218.825a10.009,10.009,0,0,1,20.018,0v62.621A23.278,23.278,0,0,1,330.606,293.1H371.1A10.008,10.008,0,1,1,371.1,313.115Z"/>
    <path class="cls-4" d="M309.994,488c-100.632,0-182.686-79.487-186.829-179.1H106.578a3.616,3.616,0,0,1-3.108-5.472c1.781-3.233,31.636-41.549,33.236-44.281a3.591,3.591,0,0,1,6.286,0c2.182,3.8,31.907,41.942,33.171,44.167a3.637,3.637,0,0,1-3.127,5.586H154.772a155.925,155.925,0,1,0,155.748-163.3v-31.6C413.558,114.292,497,197.9,497,301,497,404.277,413.274,488,309.994,488Z"/>
  </g>
</svg>
