<svg id="icon_4" data-name="icon 4" xmlns="http://www.w3.org/2000/svg" width="600" height="600" viewBox="0 0 600 600">
  <metadata><?xpacket begin="﻿" id="W5M0MpCehiHzreSzNTczkc9d"?>
<x:xmpmeta xmlns:x="adobe:ns:meta/" x:xmptk="Adobe XMP Core 5.6-c138 79.159824, 2016/09/14-01:09:01        ">
   <rdf:RDF xmlns:rdf="http://www.w3.org/1999/02/22-rdf-syntax-ns#">
      <rdf:Description rdf:about=""/>
   </rdf:RDF>
</x:xmpmeta>
                                                                                                    
                                                                                                    
                                                                                                    
                                                                                                    
                                                                                                    
                                                                                                    
                                                                                                    
                                                                                                    
                                                                                                    
                                                                                                    
                                                                                                    
                                                                                                    
                                                                                                    
                                                                                                    
                                                                                                    
                                                                                                    
                                                                                                    
                                                                                                    
                                                                                                    
                                                                                                    
                           
<?xpacket end="w"?></metadata>
<defs>
    <style>
      .cls-1 {
        fill: #573e8e;
      }

      .cls-2 {
        fill: #fff;
      }

      .cls-2, .cls-3 {
        fill-rule: evenodd;
      }

      .cls-3 {
        fill: #a78ce9;
      }
    </style>
  </defs>
  <circle class="cls-1" cx="300" cy="300" r="300"/>
  <g>
    <path class="cls-2" d="M270,453a14,14,0,0,1-14-14V319H186v39.137a5.777,5.777,0,0,1-8.874,4.978c-3.535-2.012-74.179-54.629-80.208-58.1a5.725,5.725,0,0,1,0-10.009c4.34-2.548,75.254-55.372,80.389-58.208a5.746,5.746,0,0,1,8.693,4.95V281h70V161a14,14,0,0,1,28,0V439A14,14,0,0,1,270,453Z"/>
    <path id="Shape_11_copy" data-name="Shape 11 copy" class="cls-3" d="M503.05,305.013c-6.029,3.473-76.661,56.09-80.2,58.1a5.776,5.776,0,0,1-8.872-4.978V319H344V439a14,14,0,1,1-28,0V161a14,14,0,1,1,28,0V281h69.987V241.746a5.745,5.745,0,0,1,8.691-4.95c5.135,2.836,76.037,55.66,80.377,58.208A5.725,5.725,0,0,1,503.05,305.013Z"/>
  </g>
</svg>
