<svg id="icon_7" data-name="icon 7" xmlns="http://www.w3.org/2000/svg" width="600" height="600" viewBox="0 0 600 600">
  <metadata><?xpacket begin="﻿" id="W5M0MpCehiHzreSzNTczkc9d"?>
<x:xmpmeta xmlns:x="adobe:ns:meta/" x:xmptk="Adobe XMP Core 5.6-c138 79.159824, 2016/09/14-01:09:01        ">
   <rdf:RDF xmlns:rdf="http://www.w3.org/1999/02/22-rdf-syntax-ns#">
      <rdf:Description rdf:about=""/>
   </rdf:RDF>
</x:xmpmeta>
                                                                                                    
                                                                                                    
                                                                                                    
                                                                                                    
                                                                                                    
                                                                                                    
                                                                                                    
                                                                                                    
                                                                                                    
                                                                                                    
                                                                                                    
                                                                                                    
                                                                                                    
                                                                                                    
                                                                                                    
                                                                                                    
                                                                                                    
                                                                                                    
                                                                                                    
                                                                                                    
                           
<?xpacket end="w"?></metadata>
<defs>
    <style>
      .cls-1 {
        fill: #573e8e;
      }

      .cls-2 {
        fill: #a78ce9;
      }

      .cls-3, .cls-4 {
        fill: #fff;
      }

      .cls-4 {
        fill-rule: evenodd;
      }
    </style>
  </defs>
  <circle id="Ellipse_10_copy" data-name="Ellipse 10 copy" class="cls-1" cx="300" cy="300" r="300"/>
  <g>
    <circle class="cls-2" cx="299.656" cy="287.969" r="73.406"/>
    <rect id="Rounded_Rectangle_4" data-name="Rounded Rectangle 4" class="cls-3" x="289" y="120" width="22" height="45" rx="11" ry="11"/>
    <path id="Rounded_Rectangle_4_copy" data-name="Rounded Rectangle 4 copy" class="cls-4" d="M180.09,169.59a11,11,0,0,1,15.556,0l16.264,16.264a11,11,0,0,1-15.556,15.556L180.09,185.146A11,11,0,0,1,180.09,169.59Z"/>
    <path id="Rounded_Rectangle_4_copy_3" data-name="Rounded Rectangle 4 copy 3" class="cls-4" d="M418.809,169.191a10.921,10.921,0,0,0-15.443,0l-16.144,16.144a10.92,10.92,0,1,0,15.443,15.443l16.144-16.144A10.921,10.921,0,0,0,418.809,169.191Z"/>
    <path id="Rounded_Rectangle_4_copy_4" data-name="Rounded Rectangle 4 copy 4" class="cls-4" d="M469.35,288.984a10.92,10.92,0,0,0-10.919-10.919H435.6a10.92,10.92,0,0,0,0,21.839h22.831A10.92,10.92,0,0,0,469.35,288.984Z"/>
    <path id="Rounded_Rectangle_4_copy_5" data-name="Rounded Rectangle 4 copy 5" class="cls-4" d="M175.35,288.984a10.92,10.92,0,0,0-10.919-10.919H141.6a10.92,10.92,0,0,0,0,21.839h22.831A10.92,10.92,0,0,0,175.35,288.984Z"/>
    <path id="Rounded_Rectangle_4_copy_7" data-name="Rounded Rectangle 4 copy 7" class="cls-4" d="M342.539,291.389a10.92,10.92,0,0,1-13.727,7.074l-21-7.026a10.914,10.914,0,0,1-12,17.026l-32.746-10.955a10.919,10.919,0,1,1,6.653-20.8l21,7.026a10.914,10.914,0,0,1,12-17.026l32.746,10.955A10.919,10.919,0,0,1,342.539,291.389Z"/>
    <path id="Rounded_Rectangle_6" data-name="Rounded Rectangle 6" class="cls-4" d="M357,387.96V448a10,10,0,0,1-10,10H335v12a10,10,0,0,1-10,10H276a10,10,0,0,1-10-10V458H254a10,10,0,0,1-10-10V387.96A113.5,113.5,0,1,1,357,387.96Zm-23-14.551V425a10,10,0,0,1-10,10H311v18a10,10,0,0,1-10,10h-3a10,10,0,0,1-10-10V435H276a10,10,0,0,1-10-10V373.409A91,91,0,1,1,334,373.409Z"/>
  </g>
</svg>
