<svg id="icon_2" data-name="icon 2" xmlns="http://www.w3.org/2000/svg" width="600" height="600" viewBox="0 0 600 600">
  <metadata><?xpacket begin="﻿" id="W5M0MpCehiHzreSzNTczkc9d"?>
<x:xmpmeta xmlns:x="adobe:ns:meta/" x:xmptk="Adobe XMP Core 5.6-c138 79.159824, 2016/09/14-01:09:01        ">
   <rdf:RDF xmlns:rdf="http://www.w3.org/1999/02/22-rdf-syntax-ns#">
      <rdf:Description rdf:about=""/>
   </rdf:RDF>
</x:xmpmeta>
                                                                                                    
                                                                                                    
                                                                                                    
                                                                                                    
                                                                                                    
                                                                                                    
                                                                                                    
                                                                                                    
                                                                                                    
                                                                                                    
                                                                                                    
                                                                                                    
                                                                                                    
                                                                                                    
                                                                                                    
                                                                                                    
                                                                                                    
                                                                                                    
                                                                                                    
                                                                                                    
                           
<?xpacket end="w"?></metadata>
<defs>
    <style>
      .cls-1 {
        fill: #573e8e;
      }

      .cls-2 {
        fill: #fff;
      }

      .cls-3 {
        fill: #a78ce9;
        fill-rule: evenodd;
      }
    </style>
  </defs>
  <circle id="Ellipse_10_copy" data-name="Ellipse 10 copy" class="cls-1" cx="300" cy="300" r="300"/>
  <g>
    <rect id="Rounded_Rectangle_1_copy" data-name="Rounded Rectangle 1 copy" class="cls-2" x="259" y="332" width="79" height="82" rx="24" ry="24"/>
    <rect id="Rounded_Rectangle_1_copy_2" data-name="Rounded Rectangle 1 copy 2" class="cls-2" x="153" y="359" width="79" height="55" rx="24" ry="24"/>
    <path class="cls-3" d="M442.584,161.256a11.149,11.149,0,0,1-.191,1.321l0.021,0.019V248.7a11,11,0,0,1-18.565,9.927c-0.243-.243-0.468-0.5-0.684-0.757l-0.044.017-27.43-27.79C351.76,284.052,256.828,312.29,229,316c-21.032,2.8-50.644,6.089-65.964,1.951A11.995,11.995,0,0,1,164,294h0.008A15.287,15.287,0,0,1,169,294s41.5,0.5,98-25c47.608-21.487,82.434-62.851,92.217-75.34L334.08,168.847l0.016-.044c-0.259-.215-0.513-0.44-0.756-0.683a11,11,0,0,1,9.927-18.565h86.106l0.019,0.021a10.917,10.917,0,0,1,1.321-.191h0.019a10.97,10.97,0,0,1,1.216-.027c0.083,0,.166.007,0.249,0.012,0.342,0.017.682,0.051,1.022,0.1,0.086,0.013.173,0.023,0.26,0.038a11.1,11.1,0,0,1,1.19.265l0.028,0.007a11,11,0,0,1,1.2.427c0.089,0.037.176,0.082,0.264,0.122,0.29,0.132.576,0.274,0.856,0.432,0.118,0.067.234,0.136,0.35,0.207,0.257,0.157.508,0.328,0.754,0.509,0.1,0.076.21,0.149,0.312,0.229a11.055,11.055,0,0,1,.976.858,11.357,11.357,0,0,1,.858.975c0.08,0.1.153,0.209,0.229,0.313q0.272,0.369.509,0.754c0.071,0.116.14,0.231,0.206,0.349,0.158,0.281.3,0.566,0.432,0.857,0.04,0.088.085,0.174,0.123,0.263a10.936,10.936,0,0,1,.426,1.2c0,0.01,0,.019.007,0.028a10.88,10.88,0,0,1,.266,1.191c0.015,0.087.025,0.173,0.038,0.26,0.049,0.34.083,0.68,0.1,1.022,0,0.083.01,0.165,0.012,0.249a10.946,10.946,0,0,1-.027,1.215A0.141,0.141,0,0,0,442.584,161.256Z"/>
    <rect id="Rounded_Rectangle_1" data-name="Rounded Rectangle 1" class="cls-2" x="365" y="281" width="79" height="133" rx="24" ry="24"/>
  </g>
</svg>
