<svg xmlns="http://www.w3.org/2000/svg" width="1269" height="603" viewBox="0 0 1269 603">
  <metadata><?xpacket begin="﻿" id="W5M0MpCehiHzreSzNTczkc9d"?>
<x:xmpmeta xmlns:x="adobe:ns:meta/" x:xmptk="Adobe XMP Core 5.6-c138 79.159824, 2016/09/14-01:09:01        ">
   <rdf:RDF xmlns:rdf="http://www.w3.org/1999/02/22-rdf-syntax-ns#">
      <rdf:Description rdf:about=""/>
   </rdf:RDF>
</x:xmpmeta>
                                                                                                    
                                                                                                    
                                                                                                    
                                                                                                    
                                                                                                    
                                                                                                    
                                                                                                    
                                                                                                    
                                                                                                    
                                                                                                    
                                                                                                    
                                                                                                    
                                                                                                    
                                                                                                    
                                                                                                    
                                                                                                    
                                                                                                    
                                                                                                    
                                                                                                    
                                                                                                    
                           
<?xpacket end="w"?></metadata>
<defs>
    <style>
      .cls-1 {
        fill: #fff;
        fill-opacity: 0;
        stroke: #000;
        stroke-linejoin: round;
        stroke-opacity: 0.05;
        stroke-width: 2px;
      }

      .cls-1, .cls-2 {
        fill-rule: evenodd;
      }

      .cls-2 {
        fill: #c6cdd5;
      }
    </style>
  </defs>
  <path id="Rounded_Rectangle_1_copy_16" data-name="Rounded Rectangle 1 copy 16" class="cls-1" d="M548.155,151.169L1192.37,54.807a39.1,39.1,0,0,1,44.46,32.9l27.28,175.819A39.11,39.11,0,0,1,1231.22,308L587.007,404.359a39.111,39.111,0,0,1-44.466-32.9L515.259,195.641A39.115,39.115,0,0,1,548.155,151.169Z"/>
  <path id="Rounded_Rectangle_1_copy_20" data-name="Rounded Rectangle 1 copy 20" class="cls-1" d="M405.343,74.771L875.5,4.375A28.548,28.548,0,0,1,907.952,28.41l19.911,128.443a28.571,28.571,0,0,1-24.008,32.489L433.7,259.738A28.549,28.549,0,0,1,401.246,235.7L381.335,107.26A28.572,28.572,0,0,1,405.343,74.771Z"/>
  <path id="Rounded_Rectangle_1_copy_17" data-name="Rounded Rectangle 1 copy 17" class="cls-2" d="M390.811,215.313l596.064-91.678a18.207,18.207,0,0,1,20.585,15.5l12.07,82.1a18.253,18.253,0,0,1-15.48,20.632L407.99,333.54a18.2,18.2,0,0,1-20.582-15.5l-12.07-82.1A18.25,18.25,0,0,1,390.811,215.313Z"/>
  <path id="Rounded_Rectangle_1_copy_21" data-name="Rounded Rectangle 1 copy 21" class="cls-2" d="M16.411,484.15l596.064-91.679a18.2,18.2,0,0,1,20.582,15.5l12.07,82.1A18.25,18.25,0,0,1,629.654,510.7L33.59,602.377a18.2,18.2,0,0,1-20.583-15.5l-12.07-82.1A18.249,18.249,0,0,1,16.411,484.15Z"/>
</svg>
