<svg id="_-eg-Group_95_copy" data-name="-eg-Group 95 copy" xmlns="http://www.w3.org/2000/svg" width="1163" height="528" viewBox="0 0 1163 528">
  <metadata><?xpacket begin="﻿" id="W5M0MpCehiHzreSzNTczkc9d"?>
<x:xmpmeta xmlns:x="adobe:ns:meta/" x:xmptk="Adobe XMP Core 5.6-c138 79.159824, 2016/09/14-01:09:01        ">
   <rdf:RDF xmlns:rdf="http://www.w3.org/1999/02/22-rdf-syntax-ns#">
      <rdf:Description rdf:about=""/>
   </rdf:RDF>
</x:xmpmeta>
                                                                                                    
                                                                                                    
                                                                                                    
                                                                                                    
                                                                                                    
                                                                                                    
                                                                                                    
                                                                                                    
                                                                                                    
                                                                                                    
                                                                                                    
                                                                                                    
                                                                                                    
                                                                                                    
                                                                                                    
                                                                                                    
                                                                                                    
                                                                                                    
                                                                                                    
                                                                                                    
                           
<?xpacket end="w"?></metadata>
<defs>
    <style>
      .cls-1 {
        fill: #fff;
        fill-opacity: 0;
        stroke: #000;
        stroke-linejoin: round;
        stroke-opacity: 0.05;
        stroke-width: 3px;
      }

      .cls-1, .cls-2 {
        fill-rule: evenodd;
      }

      .cls-2 {
        fill: #c6cdd5;
      }
    </style>
  </defs>
  <path id="Rounded_Rectangle_1_copy_16" data-name="Rounded Rectangle 1 copy 16" class="cls-1" d="M261.944,126.888L1067.21,6.453a48.887,48.887,0,0,1,55.58,41.12l34.1,219.743a48.88,48.88,0,0,1-41.12,55.582L310.508,443.334a48.889,48.889,0,0,1-55.582-41.119l-34.1-219.744A48.889,48.889,0,0,1,261.944,126.888Z"/>
  <path id="Rounded_Rectangle_1_copy_20" data-name="Rounded Rectangle 1 copy 20" class="cls-1" d="M35.429,291.406l587.7-87.984a35.686,35.686,0,0,1,40.565,30.039l24.888,160.532a35.709,35.709,0,0,1-30.01,40.605l-587.7,87.984a35.685,35.685,0,0,1-40.565-30.04L5.419,332.011A35.709,35.709,0,0,1,35.429,291.406Z"/>
  <path id="Rounded_Rectangle_1_copy_17" data-name="Rounded Rectangle 1 copy 17" class="cls-2" d="M595.761,312.146l486.449-75a14.862,14.862,0,0,1,16.8,12.676l9.85,67.162a14.923,14.923,0,0,1-12.63,16.879l-486.449,75a14.864,14.864,0,0,1-16.8-12.677l-9.85-67.162A14.924,14.924,0,0,1,595.761,312.146Z"/>
</svg>
