<svg xmlns="http://www.w3.org/2000/svg" width="1071" height="537" viewBox="0 0 1071 537">
  <metadata><?xpacket begin="﻿" id="W5M0MpCehiHzreSzNTczkc9d"?>
<x:xmpmeta xmlns:x="adobe:ns:meta/" x:xmptk="Adobe XMP Core 5.6-c138 79.159824, 2016/09/14-01:09:01        ">
   <rdf:RDF xmlns:rdf="http://www.w3.org/1999/02/22-rdf-syntax-ns#">
      <rdf:Description rdf:about=""/>
   </rdf:RDF>
</x:xmpmeta>
                                                                                                    
                                                                                                    
                                                                                                    
                                                                                                    
                                                                                                    
                                                                                                    
                                                                                                    
                                                                                                    
                                                                                                    
                                                                                                    
                                                                                                    
                                                                                                    
                                                                                                    
                                                                                                    
                                                                                                    
                                                                                                    
                                                                                                    
                                                                                                    
                                                                                                    
                                                                                                    
                           
<?xpacket end="w"?></metadata>
<defs>
    <style>
      .cls-1 {
        fill: #fff;
        fill-opacity: 0;
        stroke: #000;
        stroke-linejoin: round;
        stroke-opacity: 0.05;
        stroke-width: 3px;
      }

      .cls-1, .cls-2 {
        fill-rule: evenodd;
      }

      .cls-2 {
        fill: #c6cdd5;
      }
    </style>
  </defs>
  <path id="Rounded_Rectangle_1_copy_16" data-name="Rounded Rectangle 1 copy 16" class="cls-1" d="M169.943,126.888L975.207,6.453a48.888,48.888,0,0,1,55.583,41.12l34.1,219.744a48.88,48.88,0,0,1-41.12,55.582L218.508,443.334a48.889,48.889,0,0,1-55.582-41.12l-34.1-219.743A48.89,48.89,0,0,1,169.943,126.888Z"/>
  <path id="Rounded_Rectangle_1_copy_20" data-name="Rounded Rectangle 1 copy 20" class="cls-1" d="M36.429,251.405l587.7-87.983a35.685,35.685,0,0,1,40.566,30.04l24.888,160.531a35.711,35.711,0,0,1-30.01,40.606l-587.7,87.983a35.686,35.686,0,0,1-40.565-30.039L6.419,292.011A35.711,35.711,0,0,1,36.429,251.405Z"/>
  <path id="Rounded_Rectangle_1_copy_17" data-name="Rounded Rectangle 1 copy 17" class="cls-2" d="M20.264,388.059L765.343,273.476a22.754,22.754,0,0,1,25.728,19.367l15.088,102.61a22.809,22.809,0,0,1-19.342,25.787L41.738,535.822A22.753,22.753,0,0,1,16.01,516.456L0.922,413.846A22.809,22.809,0,0,1,20.264,388.059Z"/>
</svg>
