<svg id="icon_2" data-name="icon 2" xmlns="http://www.w3.org/2000/svg" width="600" height="600"><defs><style>.cls-1{fill:#3ebf8b;fill-rule:evenodd}</style></defs><path id="Shape_1_copy" data-name="Shape 1 copy" class="cls-1" d="M405 380c-27 26.4-33.1 46.7-38 69s-19 25-19 25h-99s-14.2-2.7-19-25-11-42.6-38-69-38.5-72.6-34-108c4-32.3 32-111.1 120-125a104.6 104.6 0 0 1 22-2h5a102.6 102.6 0 0 1 22 2.1c86.7 14 108 92.6 112 124.9 4.5 35.4-7 81.6-34 108z"/><path id="Shape_7_copy" data-name="Shape 7 copy" d="M282.6 367l-74.2-77.2 27.3-28.8 46.9 48.8 78.7-80.6 27.3 28.8z" fill="#fff" fill-rule="evenodd"/><path id="Shape_7_copy_2" data-name="Shape 7 copy 2" class="cls-1" d="M250 497h97a17 17 0 0 1 17 17v15a17 17 0 0 1-.1 2 21.5 21.5 0 0 1-21.4 24h-.4l-6.1 20s-3.6 10-18 10h-39c-14.4 0-18-10-18-10l-6-20h-.5a21.5 21.5 0 0 1-21.4-24 17 17 0 0 1-.1-2v-15a17 17 0 0 1 17-17z"/><path id="Rounded_Rectangle_1_copy_4" data-name="Rounded Rectangle 1 copy 4" d="M104.5 459l39-38.9a15.5 15.5 0 0 1 21.9 22l-39 39a15.5 15.5 0 0 1-22-22zm0-344.5l39 39a15.5 15.5 0 0 0 22-22l-39-39a15.5 15.5 0 1 0-22 22zm179-87v55a15.5 15.5 0 1 0 31 0v-55a15.5 15.5 0 1 0-31 0zM39.5 271h55a15.5 15.5 0 0 1 0 31h-55a15.5 15.5 0 1 1 0-31zm453 188.3l-39-39a15.5 15.5 0 0 0-22 22l39 39a15.5 15.5 0 0 0 22-22zm-.1-344.9l-39 39a15.5 15.5 0 1 1-21.8-22l38.9-39a15.5 15.5 0 1 1 21.9 22zm65 156.7h-55a15.5 15.5 0 0 0 0 31.1h55a15.5 15.5 0 0 0 0-31z" fill="#a5e2cd" fill-rule="evenodd"/></svg>