<svg id="icon_6" data-name="icon 6" xmlns="http://www.w3.org/2000/svg" width="600" height="600" viewBox="0 0 600 600">
  <metadata><?xpacket begin="﻿" id="W5M0MpCehiHzreSzNTczkc9d"?>
<x:xmpmeta xmlns:x="adobe:ns:meta/" x:xmptk="Adobe XMP Core 5.6-c138 79.159824, 2016/09/14-01:09:01        ">
   <rdf:RDF xmlns:rdf="http://www.w3.org/1999/02/22-rdf-syntax-ns#">
      <rdf:Description rdf:about=""/>
   </rdf:RDF>
</x:xmpmeta>
                                                                                                    
                                                                                                    
                                                                                                    
                                                                                                    
                                                                                                    
                                                                                                    
                                                                                                    
                                                                                                    
                                                                                                    
                                                                                                    
                                                                                                    
                                                                                                    
                                                                                                    
                                                                                                    
                                                                                                    
                                                                                                    
                                                                                                    
                                                                                                    
                                                                                                    
                                                                                                    
                           
<?xpacket end="w"?></metadata>
<defs>
    <style>
      .cls-1 {
        fill: #164b68;
      }

      .cls-2 {
        fill: #fff;
        fill-rule: evenodd;
      }
    </style>
  </defs>
  <circle id="Ellipse_10_copy_3" data-name="Ellipse 10 copy 3" class="cls-1" cx="300" cy="300" r="300"/>
  <path id="Rounded_Rectangle_4_copy_2" data-name="Rounded Rectangle 4 copy 2" class="cls-2" d="M201,177a32,32,0,1,1-32,32A32,32,0,0,1,201,177Zm83,4H403a28,28,0,0,1,0,56H284A28,28,0,0,1,284,181Zm-83,87a32,32,0,1,1-32,32A32,32,0,0,1,201,268Zm83,4H403a28,28,0,0,1,0,56H284A28,28,0,0,1,284,272Zm-83,87a32,32,0,1,1-32,32A32,32,0,0,1,201,359Zm83,4H403a28,28,0,0,1,0,56H284A28,28,0,0,1,284,363Z"/>
</svg>
