<svg id="icon_3" data-name="icon 3" xmlns="http://www.w3.org/2000/svg" width="600" height="600"><defs><style>.cls-2{fill-rule:evenodd}.cls-2,.cls-4{fill:#fff}</style></defs><path id="Ellipse_7_copy_2" data-name="Ellipse 7 copy 2" d="M554.7 150.3L446.3 267.7l-188.1-72.3-123 166.4L5.4 285a295.5 295.5 0 0 1 549.4-135.2z" fill-rule="evenodd" fill="#8ddaff"/><path id="Shape_6_copy" data-name="Shape 6 copy" class="cls-2" d="M5.8 322Q5 311.4 5 300.5q0-7.8.4-15.4l129.8 76.7 123-166.4 188.1 72.3L555 150.1a295 295 0 0 1 14.5 27.8L446.4 311l-181-72.3-123 166.4S6 324.2 5.8 322"/><path d="M300.5 596A295.5 295.5 0 0 1 5.8 322l136.6 83.2 123-166.4 181 72.3 123-133.3A294.4 294.4 0 0 1 596 300.5 295.5 295.5 0 0 1 300.5 596z" fill="#1ab5fe" fill-rule="evenodd"/><path class="cls-2" d="M442.7 246a39.8 39.8 0 1 1-39.8 39.8 39.8 39.8 0 0 1 39.8-39.8z"/><circle id="Ellipse_5_copy" data-name="Ellipse 5 copy" class="cls-4" cx="138.8" cy="387.1" r="39.8"/><circle id="Ellipse_5_copy_2" data-name="Ellipse 5 copy 2" class="cls-4" cx="269.1" cy="227.9" r="39.8"/></svg>