<svg id="icon_1" data-name="icon 1" xmlns="http://www.w3.org/2000/svg" width="600" height="600"><defs><style>.cls-3{fill-rule:evenodd;fill:#fff}</style></defs><circle cx="300.5" cy="300.5" r="295.5" fill="#8ddaff"/><path d="M203 512h169l-5-76h63s23.7-3.7 24-28-4-51-4-51l18-10-20-69s11-8.7 9-19-14-57-14-57 23.7-3.3 10-30-67.7-78-170-78-159.7 91-171 145 3 114.7 85 170c0 0 16 1.3 6 103z" fill-rule="evenodd" fill="#1ab5fe"/><path id="Shape_2_copy_5" data-name="Shape 2 copy 5" class="cls-3" d="M309 208.5l4.2 18.2-16.3 6.7a57 57 0 0 1-.2 3.6l14.8 8.7-4.8 18-18.7-1.6.2-.7-1 1.4 8.3 16-13.6 12.7-14.2-10.7-3.8 2v16.7l-18 5L238 288c-1.3 0-2.5-.2-3.6-.3l-9.3 14.8-18-5.3 2.3-18-1.9-1.3-15.2 8.7-13.3-13 10.7-15.5.2.2-1.6-3 .2.5h-18l-5-18 17-8 .4 2v-.8c0-1.6 0-3.2.2-4.8l-.3 1-15.2-9.8 5.6-17.8L191 202l1.8-2.9-8.6-15.2 13.2-13.2 14.9 10.5 3.7-2V163l18-5 7.5 16c1.5 0 3 .2 4.4.3l8-14 18.2 4.7-1.5 18c1 .5 1.8 1.1 2.7 1.8l14.1-8.1 13.4 13-10.3 14.9 1.5 3zM240 198a33 33 0 1 0 33 33 33 33 0 0 0-33-33z"/><path id="Shape_2_copy_6" data-name="Shape 2 copy 6" class="cls-3" d="M382.7 156.3l2.3 10.6-9.3 3.8-.2 2.1 8.6 5-2.8 10.6-10.8-1 .1-.4-.5.8 4.8 9.3-8 7.4-8-6.3-2.3 1.2v9.7l-10.4 2.9-4.5-9.6-2-.1-5.4 8.5-10.3-3 1.3-10.5-1-.8-8.9 5.1-7.6-7.6 6.2-9v.2l-.8-1.8v.3H303l-2.9-10.4 9.8-4.6.3 1.1v-.5-2.7l-.1.5-8.7-5.6 3.2-10.4 10.1 1.4 1.1-1.7-5-8.7 7.7-7.7 8.5 6 2.1-1v-9.5l10.4-2.9 4.4 9.3c.8 0 1.7 0 2.5.2l4.6-8.1 10.4 2.7-.8 10.3 1.6 1.1 8.1-4.7 7.7 7.6-6 8.6.9 1.8zm-39.8-6.1a19.1 19.1 0 1 0 19 19.1 19 19 0 0 0-19-19.1z"/><path id="Shape_2_copy_7" data-name="Shape 2 copy 7" class="cls-3" d="M382.7 276.3l2.3 10.6-9.3 3.8-.2 2.1 8.6 5-2.8 10.6-10.8-1 .1-.4-.5.8 4.8 9.3-8 7.4-8-6.3-2.3 1.2v9.7l-10.4 2.9-4.5-9.6-2-.1-5.4 8.5-10.3-3 1.3-10.5-1-.8-8.9 5.1-7.6-7.6 6.2-9v.2l-.8-1.8v.3H303l-2.9-10.4 9.8-4.6.3 1.1v-.5-2.7l-.1.5-8.7-5.6 3.2-10.4 10.1 1.4 1.1-1.7-5-8.7 7.7-7.7 8.5 6 2.1-1v-9.5l10.4-2.9 4.4 9.3c.8 0 1.7 0 2.5.2l4.6-8.1 10.4 2.7-.8 10.3 1.6 1.2 8.1-4.8 7.7 7.6-6 8.6.9 1.8zm-39.8-6.1a19.1 19.1 0 1 0 19 19.1 19 19 0 0 0-19-19.1z"/><path id="Shape_2_copy_8" data-name="Shape 2 copy 8" class="cls-3" d="M258.7 325.5l1.3 6-5.3 2.2v1.2l4.8 2.8-1.6 6-6-.6v-.2l-.3.4 2.7 5.3-4.5 4.1-4.6-3.5-1.2.7v5.5L238 357l-2.5-5.4-1.2-.1-3 4.8-5.8-1.7.7-6-.6-.3-5 2.8-4.3-4.3 3.5-5-.5-1v.2h-5.8l-1.6-5.9 5.5-2.6.2.7v-.3-1.6.4l-5-3.2 1.8-5.9 5.8.8.6-1-2.8-4.9 4.3-4.3 4.8 3.4 1.2-.6v-5.4l5.9-1.6 2.4 5.3h1.4l2.7-4.5 5.8 1.5-.4 5.9.9.6 4.5-2.7 4.4 4.3-3.4 4.9.5 1zm-22.5-3.4a10.8 10.8 0 1 0 10.7 10.8 10.8 10.8 0 0 0-10.7-10.8z"/></svg>