<svg id="_-e-logo_copy_3" data-name="-e-logo copy 3" xmlns="http://www.w3.org/2000/svg" width="1000" height="256"><defs><style>.cls-1{fill:#00ac69;fill-rule:evenodd}</style></defs><path id="Shape_2_copy_3" data-name="Shape 2 copy 3" class="cls-1" d="M348 256c-48 0-89.7-28.2-110.3-69.5A123.4 123.4 0 0 1 127.5 256C59.1 256 3.7 198.7 3.7 128S59 0 127.5 0c48 0 89.6 28.2 110.2 69.5A123.6 123.6 0 0 1 348 0c68.4 0 124 57.3 124 128s-55.6 128-124 128zM236.2 117.9h-.2a7.6 7.6 0 0 0-.9-.3h-.2a7.4 7.4 0 0 0-1.1-.1h-116L144 88.9a10.3 10.3 0 0 0 1.1-1.7 11.8 11.8 0 0 0 1.5-5.7A11.4 11.4 0 0 0 144 74a8 8 0 0 0-12.6 0l-41.4 46.5a11.8 11.8 0 0 0 0 14.7l41.4 46.5a8 8 0 0 0 12.6 0 11.8 11.8 0 0 0 0-14.8l-26.4-28.6h116a7.4 7.4 0 0 0 1.2-.1h.2a7.6 7.6 0 0 0 .9-.2l.2-.1c3.7-1.2 6.4-5.3 6.4-10s-2.7-8.9-6.4-10.1zm112.4-93.4a103 103 0 0 0-99.4 79.5 132.7 132.7 0 0 1 1.7 13.5h102.5l-26.3-28.6a11.8 11.8 0 0 1 0-14.8 8 8 0 0 1 12.5 0l41.5 46.5a11.8 11.8 0 0 1 0 14.7l-41.5 46.5a8 8 0 0 1-12.5 0 11.8 11.8 0 0 1 0-14.8l26.3-28.6H251a132.2 132.2 0 0 1-2 15.6c10.6 46.4 51.2 81 99.7 81 56.6 0 102.5-47.1 102.5-105.3S405 24.5 348.6 24.5z"/><path id="testly" class="cls-1" d="M561.9 184.9c10.4 0 17-2.8 20.8-6.3l-5.3-19.4c-1.4 1.6-5 3-8.7 3-5.5 0-8.6-4.6-8.6-10.8v-43.5h19.2V85.7h-19.2V59.3h-25v26.4h-15.7V108h15.7v50.3c0 17.4 9.3 26.7 26.8 26.7zm75.2 0c14.7 0 29.7-4.7 39.1-13.5L665 154.6c-6 6-17 9.4-25.1 9.4-16.2 0-25.6-9.8-27.4-21.6h70.6v-6c0-31.5-19-53.1-47.6-53.1a49 49 0 0 0-49 50.7c0 31 21.7 50.9 50.6 50.9zm22-60.1h-46.8c1-9.6 7.7-20.7 23.2-20.7 16.5 0 22.8 11.5 23.6 20.7zm72.3 60c26.3 0 41.3-13 41.3-30.8 0-39-56.4-27-56.4-41.3 0-5.4 5.9-9.4 14.9-9.4 11.6 0 22.4 5.2 28.1 11.3l10-18a59.7 59.7 0 0 0-38.1-13.3c-25.1 0-38.9 14.2-38.9 30.5 0 38 56.2 25 56.2 40.8 0 6-5.1 10.2-16 10.2a53.2 53.2 0 0 1-32.7-13.4L689 169.8c10 9.4 25.9 15 42.4 15zm87.4 0c10.4 0 17.1-2.7 20.8-6.2l-5.3-19.4c-1.3 1.6-4.9 3-8.6 3-5.5 0-8.6-4.6-8.6-10.8v-43.5h19.2V85.7h-19.2V59.3h-25v26.4h-15.7V108H792v50.3c0 17.4 9.2 26.7 26.7 26.7zm57.4 0c10.2 0 17-2.7 20.8-6.2l-5.3-19.4c-1.4 1.6-4.9 3-8.6 3-5.5 0-8.7-4.6-8.7-10.8V48.9h-25v109.3c0 17.4 9.3 26.7 26.8 26.7zm66.4 37c30.2 0 50.5-16.7 50.5-45.8V85.7h-25V147c-4.3 5.6-12 11-21.6 11-10.6 0-17.5-4.4-17.5-17.8V85.7h-25v64.5c0 18.8 9.9 30.5 30.7 30.5a44.8 44.8 0 0 0 33.4-14.7v10c0 13.7-9.4 24.9-25.5 24.9A37 37 0 0 1 914 189l-11.2 18.2a56.6 56.6 0 0 0 39.7 14.4z"/></svg>