<svg id="icon_2" data-name="icon 2" xmlns="http://www.w3.org/2000/svg" width="600" height="600"><defs><style>.cls-1{fill:#8ddaff}.cls-2{fill:#1ab5fe;fill-rule:evenodd}</style></defs><circle id="Ellipse_7_copy_2" data-name="Ellipse 7 copy 2" class="cls-1" cx="300.5" cy="300.5" r="295.5"/><circle id="Ellipse_7_copy" data-name="Ellipse 7 copy" class="cls-1" cx="195" cy="208" r="41"/><g id="Group_43_copy_2" data-name="Group 43 copy 2"><path class="cls-2" d="M433.3 424.3q-27.6 0-32.2 27.1t-29.8 15.9q-25.1-11.3-40.4 11.6t-33.7 2.4q-18.4-20.6-41.6-5.8t-31.8-11.6q-8.4-26.2-35.6-22.2t-24.3-23.5q3-27.4-23.6-34.9T127.7 352q13.8-23.8-7.4-41.4t1.2-33.8q22.4-16.1 10.1-40.8t14.8-30.4q27-5.6 25.9-33.2t25.8-21.7q27 5.8 37.1-19.8t32.5-9.3q22.2 16.3 42-3t33.3 4.7q13.7 24 39.6 14.3t28.6 18q2.8 27.4 30.3 29.1t18.8 28q-8.6 26.2 15.8 39t6 33.3q-18.6 20.4-1.5 42t-8.2 32.8Q447.2 371 454 397.7t-20.7 26.6z"/><circle cx="306.5" cy="302.5" r="133.5" fill="#fff"/><path d="M306 156a145 145 0 1 1-145 145 145 145 0 0 1 145-145zm.5 19A126.5 126.5 0 1 1 180 301.5 126.5 126.5 0 0 1 306.5 175z" fill-rule="evenodd" fill="#8ddaff"/><path class="cls-2" d="M219 309l58 65s10.8 10.5 20 1 91-119 91-119 4.5-14-3-19-18-1.8-22 4-78 81-78 81l-46-33s-11.8-10.8-20-3-3.4 18.2 0 23z"/></g></svg>