<svg xmlns="http://www.w3.org/2000/svg" width="600" height="600" viewBox="0 0 600 600">
  <metadata><?xpacket begin="﻿" id="W5M0MpCehiHzreSzNTczkc9d"?>
<x:xmpmeta xmlns:x="adobe:ns:meta/" x:xmptk="Adobe XMP Core 5.6-c138 79.159824, 2016/09/14-01:09:01        ">
   <rdf:RDF xmlns:rdf="http://www.w3.org/1999/02/22-rdf-syntax-ns#">
      <rdf:Description rdf:about=""/>
   </rdf:RDF>
</x:xmpmeta>
                                                                                                    
                                                                                                    
                                                                                                    
                                                                                                    
                                                                                                    
                                                                                                    
                                                                                                    
                                                                                                    
                                                                                                    
                                                                                                    
                                                                                                    
                                                                                                    
                                                                                                    
                                                                                                    
                                                                                                    
                                                                                                    
                                                                                                    
                                                                                                    
                                                                                                    
                                                                                                    
                           
<?xpacket end="w"?></metadata>
<defs>
    <style>
      .cls-1 {
        fill: #e2e9f5;
      }

      .cls-2 {
        fill: #91adda;
        fill-rule: evenodd;
      }
    </style>
  </defs>
  <circle id="Ellipse_7_copy_3" data-name="Ellipse 7 copy 3" class="cls-1" cx="300.5" cy="300.5" r="295.5"/>
  <path id="_" data-name="?" class="cls-2" d="M268.291,441.589q9.081,9.079,23.025,9.083,14.358,0,23.448-9.083t9.083-23.448q0-14.357-9.083-23.236t-23.448-8.872q-13.941,0-23.025,8.872t-9.083,23.236Q259.208,432.51,268.291,441.589Zm-2.746-84.284H317.51v-9.717a43.139,43.139,0,0,1,9.294-26.617q9.288-12.248,20.7-25.771a194.632,194.632,0,0,0,20.7-30q9.288-16.476,9.3-39.29a74.863,74.863,0,0,0-6.126-30.419,71.646,71.646,0,0,0-17.11-24.081,78.676,78.676,0,0,0-26.405-15.843,97.406,97.406,0,0,0-34.01-5.7q-38.023,0-71.821,23.658V223.8q31.26-26.616,59.992-26.616,17.318,0,27.883,10.14T320.467,233.1a41.443,41.443,0,0,1-4.013,18.378,84.087,84.087,0,0,1-10.14,15.843q-6.129,7.6-13.308,15.209A138.1,138.1,0,0,0,279.7,299a89.024,89.024,0,0,0-10.139,19.646,70.422,70.422,0,0,0-4.014,24.715v13.942Z"/>
</svg>
