<svg id="icon_4" data-name="icon 4" xmlns="http://www.w3.org/2000/svg" width="600" height="600" viewBox="0 0 600 600">
  <metadata><?xpacket begin="﻿" id="W5M0MpCehiHzreSzNTczkc9d"?>
<x:xmpmeta xmlns:x="adobe:ns:meta/" x:xmptk="Adobe XMP Core 5.6-c138 79.159824, 2016/09/14-01:09:01        ">
   <rdf:RDF xmlns:rdf="http://www.w3.org/1999/02/22-rdf-syntax-ns#">
      <rdf:Description rdf:about=""/>
   </rdf:RDF>
</x:xmpmeta>
                                                                                                    
                                                                                                    
                                                                                                    
                                                                                                    
                                                                                                    
                                                                                                    
                                                                                                    
                                                                                                    
                                                                                                    
                                                                                                    
                                                                                                    
                                                                                                    
                                                                                                    
                                                                                                    
                                                                                                    
                                                                                                    
                                                                                                    
                                                                                                    
                                                                                                    
                                                                                                    
                           
<?xpacket end="w"?></metadata>
<defs>
    <style>
      .cls-1 {
        fill: #06ac6a;
      }

      .cls-2 {
        fill: #b4e6d2;
      }

      .cls-2, .cls-3 {
        fill-rule: evenodd;
      }

      .cls-3 {
        fill: #fff;
      }
    </style>
  </defs>
  <circle id="Ellipse_10_copy_2" data-name="Ellipse 10 copy 2" class="cls-1" cx="300" cy="300" r="300"/>
  <path id="Rounded_Rectangle_2_copy" data-name="Rounded Rectangle 2 copy" class="cls-2" d="M390.79,586H209.21a298.454,298.454,0,0,1-64.384-29.2L160,531c1.025-2.028,1.791-4,4-4H398c2.209,0,3.1,2.032,4,4l24.237,41.2A297.907,297.907,0,0,1,390.79,586ZM353,441l30,51a4,4,0,0,1-4,4H183a4,4,0,0,1-4-4l30-51c1.025-2.028,1.791-4,4-4H349C351.209,437,352.1,439.032,353,441Z"/>
  <path id="Rounded_Rectangle_3" data-name="Rounded Rectangle 3" class="cls-2" d="M454,171H372a7.96,7.96,0,0,1-3-.587V416a7,7,0,0,1-14,0V85a7,7,0,0,1,14,0v4.587A7.967,7.967,0,0,1,372,89h82a8,8,0,0,1,8,8v66A8,8,0,0,1,454,171Z"/>
  <path class="cls-3" d="M333,272l-36.283-20.843,17.566,146.849A17.977,17.977,0,0,1,315,403c0,0.237-.026.468-0.036,0.7L315,404h-0.05a17.977,17.977,0,0,1-35.9,0H279l-17-75-12,74h-0.025a18.481,18.481,0,0,1-36.95,0H213l0.014-.222c0-.093-0.014-0.184-0.014-0.278a18.545,18.545,0,0,1,.192-2.521l6.226-98.178L171,268l55-70,64-3,42,39,37-13,11,20ZM208,261l13.121,13.941,1.745-27.514Zm45-74a38,38,0,1,1,38-38A38,38,0,0,1,253,187Z"/>
</svg>
