<svg xmlns="http://www.w3.org/2000/svg" width="35.101cm" height="27.164cm">
    <path fill="none" stroke="#f2f2f2" stroke-width="3" d="M42.741 256.406L829.217 45.67c26.081-6.988 52.888 8.489 59.876 34.57l97.736 373.476c6.988 26.081-8.489 52.889-34.569 59.877L165.783 724.328c-26.081 6.989-52.888-8.488-59.877-34.569L8.171 316.283c-6.988-26.081 8.489-52.889 34.57-59.877z"/>
    <path fill="#C6CDD5" fill-rule="evenodd" d="M226.371 325.1l366.133-98.299c12.141-3.26 24.621 3.959 27.875 16.125l27.343 100.044c3.254 12.165-3.952 24.67-16.093 27.93l-366.133 98.298c-12.141 3.26-24.621-3.96-27.875-16.125l-27.343-100.044c-3.254-12.165 3.952-24.669 16.093-27.929z"/>
    <path fill="#1AB5FE" fill-rule="evenodd" d="M550.069 63.136L779.423 1.482c7.605-2.044 15.423 2.484 17.461 10.114l17.129 62.748c2.038 7.631-2.476 15.474-10.081 17.518l-229.355 61.654c-7.606 2.045-15.423-2.483-17.461-10.113l-17.129-62.749c-2.038-7.63 2.476-15.473 10.082-17.518zM293.288 556.812l537.94-144.607c17.839-4.795 36.175 5.826 40.955 23.722L912.357 583.1c4.78 17.897-5.806 36.292-23.645 41.088l-537.94 144.606c-17.839 4.795-36.175-5.825-40.955-23.722l-40.174-147.173c-4.78-17.897 5.806-36.292 23.645-41.087z"/>
    <path fill="#06A966" fill-rule="evenodd" d="M523.069 333.136l229.354-61.654c7.605-2.044 15.423 2.484 17.461 10.115l17.129 62.748c2.038 7.63-2.476 15.473-10.081 17.518l-229.355 61.654c-7.606 2.044-15.423-2.484-17.461-10.114l-17.129-62.749c-2.038-7.63 2.476-15.473 10.082-17.518z"/>
</svg>
