<svg xmlns="http://www.w3.org/2000/svg" width="40.763cm" height="947.981">
    <path fill="none" stroke="#f2f2f2" stroke-width="3" d="M894.044 120.947L138.568 323.683c-26.081 6.988-41.558 33.796-34.57 59.876l78.015 284.599c6.989 26.08 33.796 41.558 59.877 34.569l755.476-202.735c26.081-6.989 41.558-33.796 34.57-59.877L953.92 155.517c-6.988-26.081-33.795-41.558-59.876-34.57z"/>
    <path fill="none" stroke="#f2f2f2" stroke-width="3" d="M1030.837 8.285L244.36 219.02c-26.08 6.989-41.557 33.796-34.569 59.877l56.372 215.11c6.988 26.08 33.795 41.558 59.876 34.57l786.477-210.736c26.08-6.988 41.557-33.796 34.569-59.876l-56.372-215.11c-6.988-26.081-33.795-41.559-59.876-34.57z"/>
    <path fill="#C6CDD5" fill-rule="evenodd" d="M784.185 308.234l-366.23 97.937c-12.144 3.247-19.342 15.74-16.077 27.902l26.342 100.313c3.265 12.162 15.757 19.388 27.902 16.141l366.23-97.937c12.144-3.248 19.343-15.74 16.077-27.902l-26.341-100.313c-3.266-12.162-15.758-19.389-27.903-16.141z"/>
    <path fill="#1AB5FE" fill-rule="evenodd" d="M240.216 145.446L10.762 206.729c-7.609 2.032-12.115 9.862-10.065 17.49l16.541 62.906c2.05 7.627 9.88 12.162 17.489 10.13l229.454-61.283c7.609-2.033 12.115-9.863 10.065-17.49l-16.54-62.906c-2.051-7.627-9.881-12.163-17.49-10.13z"/>
    <path fill="#06A966" fill-rule="evenodd" d="M612.257 454.543l-229.454 61.283c-7.609 2.032-12.115 9.862-10.065 17.489l16.54 62.906c2.05 7.628 9.881 12.163 17.49 10.131l229.453-61.283c7.609-2.033 12.116-9.863 10.065-17.49l-16.54-62.906c-2.05-7.627-9.88-12.162-17.489-10.13z"/>
</svg>
