<svg data-name="icon 3" xmlns="http://www.w3.org/2000/svg" width="600" height="600"><path data-name="Shape 1 copy 3" d="M571.2 451.5h-45.6v77.7L435 451.5H236a28.9 28.9 0 0 1-28.8-29v-34H394a28.9 28.9 0 0 0 28.8-29V164.5h148.4a28.9 28.9 0 0 1 28.8 29v229.2a28.9 28.9 0 0 1-28.8 29z" fill-rule="evenodd" fill="#cdd0d1"/><path d="M364 71.4H28.9a28.9 28.9 0 0 0-28.9 29v229.2a28.9 28.9 0 0 0 28.9 29h45.6l-.1 77.6 90.7-77.7H364a28.9 28.9 0 0 0 28.8-29V100.5a28.9 28.9 0 0 0-28.8-29z" fill="#a6a8a9" fill-rule="evenodd"/></svg>