<svg data-name="icon 2" xmlns="http://www.w3.org/2000/svg" width="600" height="600"><circle cx="300" cy="300" r="300" fill="#cdd0d1"/><path d="M300 505.8a169.3 169.3 0 0 1-151-245.7 187.3 187.3 0 0 1 37-54.3c28.5-27.6 34.8-33 43.2-37.2s6.9 2.4 6 6-8.7 31.5-10.8 51-5.1 64.2 24 66 26.7-85.8 22.2-113.4-16.2-65.4-16.2-65.4-7.8-24 9-16.2 49.8 32.7 67.8 59.4 36.9 69 40.2 96 5.4 53.4 19.8 51 17.4-32.4 13.2-54-15.3-45.3-7.8-48c2.2-.8 6.5 1.7 11.8 6.2l-.1-.6A169.2 169.2 0 0 1 300 505.8z" fill="#a6a8a9" fill-rule="evenodd"/></svg>