<svg id="icon_2" data-name="icon 2" xmlns="http://www.w3.org/2000/svg" width="600" height="600" viewBox="0 0 600 600">
  <metadata><?xpacket begin="﻿" id="W5M0MpCehiHzreSzNTczkc9d"?>
<x:xmpmeta xmlns:x="adobe:ns:meta/" x:xmptk="Adobe XMP Core 5.6-c138 79.159824, 2016/09/14-01:09:01        ">
   <rdf:RDF xmlns:rdf="http://www.w3.org/1999/02/22-rdf-syntax-ns#">
      <rdf:Description rdf:about=""/>
   </rdf:RDF>
</x:xmpmeta>
                                                                                                    
                                                                                                    
                                                                                                    
                                                                                                    
                                                                                                    
                                                                                                    
                                                                                                    
                                                                                                    
                                                                                                    
                                                                                                    
                                                                                                    
                                                                                                    
                                                                                                    
                                                                                                    
                                                                                                    
                                                                                                    
                                                                                                    
                                                                                                    
                                                                                                    
                                                                                                    
                           
<?xpacket end="w"?></metadata>
<defs>
    <style>
      .cls-1 {
        fill: #dae3f2;
      }

      .cls-2 {
        fill: #fff;
      }

      .cls-2, .cls-3 {
        fill-rule: evenodd;
      }

      .cls-3 {
        fill: #b7cae7;
      }
    </style>
  </defs>
  <circle class="cls-1" cx="300" cy="300" r="300"/>
  <g>
    <path id="Shape_2_copy_5" data-name="Shape 2 copy 5" class="cls-2" d="M420.763,297.028l34.482,17.027-7.834,40.837-19.155-.379-44.8-45.217a91.478,91.478,0,1,0-66.3,72.113l39.112,39.476,1.451,20.187-39.26,13.977-19.991-35.523c-2.695.1-5.38,0.144-8.042,0.079l-18.281,34.3-40.7-8.964,1.98-40.449c-1.463-.788-2.88-1.65-4.309-2.493L196.6,423.9l-31.707-26.974L186.351,361l0.331,0.309q-2.011-3.12-3.84-6.37l0.355,1.149-40.058,2.879-14-39.154L165.7,299.334l1.348,4.372c-0.052-.6-0.143-1.185-0.186-1.786-0.258-3.588-.325-7.143-0.284-10.675l-0.648,2.281-35.187-19.3,9.583-40.464,39.645,2.484c1.145-2.283,2.406-4.5,3.682-6.7l-21.535-32.269,27.254-31.466,34.69,20.906q3.9-2.555,7.991-4.836l-2.6-36.178,39.26-13.977,19.356,34.394c3.291-.148,6.551-0.131,9.792-0.031l15.721-32.3,41,7.472-0.488,39.906c2.2,1.183,4.35,2.439,6.469,3.746L390.631,164.6l31.753,26.92-20.558,34.544q1.989,3.2,3.791,6.519l38.231-.8L455.83,271.6,420.8,288.939C420.885,291.654,420.851,294.347,420.763,297.028Z"/>
    <path id="Rounded_Rectangle_3" data-name="Rounded Rectangle 3" class="cls-3" d="M468.427,432.293l-32.5,32.155a11.43,11.43,0,0,1-16.163-.086L311.078,354.512A67.014,67.014,0,0,1,231.411,263.6l34.9,34.9,0.458-.457a11.363,11.363,0,0,1,1.954-2.588l32.5-32.155a11.422,11.422,0,0,1,1.082-.933L267.84,227.9a66.986,66.986,0,0,1,90.5,76.879L468.513,416.13A11.43,11.43,0,0,1,468.427,432.293Z"/>
  </g>
</svg>
