<svg id="icon_2" data-name="icon 2" xmlns="http://www.w3.org/2000/svg" width="600" height="600" viewBox="0 0 600 600">
  <metadata><?xpacket begin="﻿" id="W5M0MpCehiHzreSzNTczkc9d"?>
<x:xmpmeta xmlns:x="adobe:ns:meta/" x:xmptk="Adobe XMP Core 5.6-c138 79.159824, 2016/09/14-01:09:01        ">
   <rdf:RDF xmlns:rdf="http://www.w3.org/1999/02/22-rdf-syntax-ns#">
      <rdf:Description rdf:about=""/>
   </rdf:RDF>
</x:xmpmeta>
                                                                                                    
                                                                                                    
                                                                                                    
                                                                                                    
                                                                                                    
                                                                                                    
                                                                                                    
                                                                                                    
                                                                                                    
                                                                                                    
                                                                                                    
                                                                                                    
                                                                                                    
                                                                                                    
                                                                                                    
                                                                                                    
                                                                                                    
                                                                                                    
                                                                                                    
                                                                                                    
                           
<?xpacket end="w"?></metadata>
<defs>
    <style>
      .cls-1 {
        fill: #7f61bf;
      }

      .cls-1, .cls-2, .cls-3 {
        fill-rule: evenodd;
      }

      .cls-2 {
        fill: #fff;
      }

      .cls-3 {
        fill: #a88dea;
      }
    </style>
  </defs>
  <path id="Shape_1_copy" data-name="Shape 1 copy" class="cls-1" d="M405.062,380c-27.02,26.354-33.174,46.66-38,69s-19,25-19,25H249s-14.174-2.66-19-25-10.979-42.646-38-69-38.471-72.6-34-108c4.08-32.306,32.042-111.1,120.044-124.906A104.611,104.611,0,0,1,300.062,145c0.833,0,1.645.027,2.468,0.04,0.823-.013,1.638-0.037,2.47-0.04a102.6,102.6,0,0,1,22.055,2.127C413.717,161.027,434.986,239.72,439.062,272,443.533,307.4,432.083,353.646,405.062,380Z"/>
  <path id="Shape_7_copy" data-name="Shape 7 copy" class="cls-2" d="M282.6,366.994l-74.2-77.2,27.3-28.8,46.9,48.8L361.3,229.2,388.6,258Z"/>
  <path id="Shape_7_copy_2" data-name="Shape 7 copy 2" class="cls-1" d="M250,497h97a17,17,0,0,1,17,17v15a16.939,16.939,0,0,1-.14,2.077A21.475,21.475,0,0,1,342.5,555h-0.413L336,575s-3.6,10-18,10H279c-14.4,0-18-10-18-10l-6.087-20H254.5a21.475,21.475,0,0,1-21.36-23.923A16.939,16.939,0,0,1,233,529V514A17,17,0,0,1,250,497Z"/>
  <path id="Rounded_Rectangle_1_copy_4" data-name="Rounded Rectangle 1 copy 4" class="cls-3" d="M104.483,459.094l38.962-38.962A15.527,15.527,0,0,1,165.4,442.09l-38.962,38.962A15.527,15.527,0,0,1,104.483,459.094Zm0.06-344.575,38.945,38.945a15.52,15.52,0,0,0,21.948-21.948L126.491,92.571A15.52,15.52,0,1,0,104.543,114.519Zm178.94-87.043V82.552a15.52,15.52,0,1,0,31.039,0V27.476A15.52,15.52,0,1,0,283.483,27.476ZM39.408,271.063h55.1a15.527,15.527,0,0,1,0,31.053h-55.1A15.527,15.527,0,1,1,39.408,271.063ZM492.461,459.442l-38.929-39a15.528,15.528,0,0,0-21.939,21.98l38.929,39A15.528,15.528,0,0,0,492.461,459.442ZM492.4,114.515L453.489,153.5a15.521,15.521,0,1,1-21.929-21.97l38.911-38.985A15.521,15.521,0,1,1,492.4,114.515Zm65.079,156.7H502.427a15.543,15.543,0,0,0,0,31.085H557.48A15.543,15.543,0,0,0,557.48,271.219Z"/>
</svg>
