<svg id="icon_3" data-name="icon 3" xmlns="http://www.w3.org/2000/svg" width="600" height="600" viewBox="0 0 600 600">
  <metadata><?xpacket begin="﻿" id="W5M0MpCehiHzreSzNTczkc9d"?>
<x:xmpmeta xmlns:x="adobe:ns:meta/" x:xmptk="Adobe XMP Core 5.6-c138 79.159824, 2016/09/14-01:09:01        ">
   <rdf:RDF xmlns:rdf="http://www.w3.org/1999/02/22-rdf-syntax-ns#">
      <rdf:Description rdf:about=""/>
   </rdf:RDF>
</x:xmpmeta>
                                                                                                    
                                                                                                    
                                                                                                    
                                                                                                    
                                                                                                    
                                                                                                    
                                                                                                    
                                                                                                    
                                                                                                    
                                                                                                    
                                                                                                    
                                                                                                    
                                                                                                    
                                                                                                    
                                                                                                    
                                                                                                    
                                                                                                    
                                                                                                    
                                                                                                    
                                                                                                    
                           
<?xpacket end="w"?></metadata>
<defs>
    <style>
      .cls-1 {
        fill: #dae3f2;
      }

      .cls-2 {
        fill: #b7cae7;
      }

      .cls-3 {
        fill: #fff;
        fill-rule: evenodd;
      }
    </style>
  </defs>
  <circle id="Ellipse_10_copy_2" data-name="Ellipse 10 copy 2" class="cls-1" cx="300" cy="300" r="300"/>
  <g>
    <circle class="cls-2" cx="300.5" cy="300.5" r="28.5"/>
    <path id="Ellipse_12_copy_2" data-name="Ellipse 12 copy 2" class="cls-3" d="M492,318H472.064A173.047,173.047,0,0,1,317,472.168V492a6,6,0,0,1-6,6H289a6,6,0,0,1-6-6V472.168A173.047,173.047,0,0,1,127.936,318H108a6,6,0,0,1-6-6V290a6,6,0,0,1,6-6h19.737A173.044,173.044,0,0,1,283,127.832V109a6,6,0,0,1,6-6h22a6,6,0,0,1,6,6v18.832A173.044,173.044,0,0,1,472.263,284H492a6,6,0,0,1,6,6v22A6,6,0,0,1,492,318ZM317,175.071V206c0,0.114-.027.221-0.034,0.334,0.009,0.223.034,0.441,0.034,0.666a17,17,0,0,1-34,0c0-.225.025-0.443,0.034-0.666-0.007-.113-0.034-0.22-0.034-0.334V175.211A126.553,126.553,0,0,0,175.088,284H205c0.114,0,.221.027,0.334,0.034,0.223-.009.441-0.034,0.666-0.034a17,17,0,0,1,0,34c-0.225,0-.443-0.025-0.666-0.034-0.113.007-.22,0.034-0.334,0.034H175.2A126.57,126.57,0,0,0,283,425.789V395c0-.114.027-0.221,0.034-0.334C283.025,394.443,283,394.225,283,394a17,17,0,0,1,34,0c0,0.225-.025.443-0.034,0.666,0.007,0.113.034,0.22,0.034,0.334v30.929A126.567,126.567,0,0,0,425.794,318H395c-0.114,0-.221-0.027-0.334-0.034-0.223.009-.441,0.034-0.666,0.034a17,17,0,0,1,0-34c0.225,0,.443.025,0.666,0.034,0.113-.007.22-0.034,0.334-0.034h30.91A126.55,126.55,0,0,0,317,175.071Z"/>
  </g>
</svg>
