<svg id="icon_1" data-name="icon 1" xmlns="http://www.w3.org/2000/svg" width="600" height="600" viewBox="0 0 600 600">
  <metadata><?xpacket begin="﻿" id="W5M0MpCehiHzreSzNTczkc9d"?>
<x:xmpmeta xmlns:x="adobe:ns:meta/" x:xmptk="Adobe XMP Core 5.6-c138 79.159824, 2016/09/14-01:09:01        ">
   <rdf:RDF xmlns:rdf="http://www.w3.org/1999/02/22-rdf-syntax-ns#">
      <rdf:Description rdf:about=""/>
   </rdf:RDF>
</x:xmpmeta>
                                                                                                    
                                                                                                    
                                                                                                    
                                                                                                    
                                                                                                    
                                                                                                    
                                                                                                    
                                                                                                    
                                                                                                    
                                                                                                    
                                                                                                    
                                                                                                    
                                                                                                    
                                                                                                    
                                                                                                    
                                                                                                    
                                                                                                    
                                                                                                    
                                                                                                    
                                                                                                    
                           
<?xpacket end="w"?></metadata>
<defs>
    <style>
      .cls-1 {
        fill: #dae3f2;
      }

      .cls-2 {
        fill: #b7cae7;
        fill-rule: evenodd;
      }
    </style>
  </defs>
  <circle id="Ellipse_10_copy" data-name="Ellipse 10 copy" class="cls-1" cx="300" cy="300" r="300"/>
  <path id="Ellipse_11_copy" data-name="Ellipse 11 copy" class="cls-2" d="M396.913,391c-2.858,0-5.684-.138-8.475-0.4-51.791,1.073-88.691-46.926-98.265-60.809-0.034.1-.073,0.194-0.108,0.292-13.156-17.071-38.5-49.176-50.17-58.735a42.59,42.59,0,1,0-31.014,71.753h0s0.356,0,.986-0.029a42.384,42.384,0,0,0,17.4-4.149c9.177-3.745,20.293-10.866,29.726-24.35l25.846,31.164a90.994,90.994,0,1,1-62.079-135.218c39.167,2.639,68.962,32.579,83.544,50.676,0.965,1.25,2.316,3,3.974,5.12,1,1.333,1.888,2.561,2.64,3.627,0.02-.058.043-0.115,0.064-0.172,13.169,16.778,38.461,48.263,50.122,57.809a42.59,42.59,0,1,0,31.014-71.753c-0.375,0-.745.024-1.118,0.033-2.532-.555-6.3-0.117-11.7,1.713-19.05,6.46-29.662,17.887-35.329,26.74l-25.439-30.673A91.058,91.058,0,1,1,396.913,391Z"/>
</svg>
