<svg id="icon_3" data-name="icon 3" xmlns="http://www.w3.org/2000/svg" width="600" height="600" viewBox="0 0 600 600">
  <metadata><?xpacket begin="﻿" id="W5M0MpCehiHzreSzNTczkc9d"?>
<x:xmpmeta xmlns:x="adobe:ns:meta/" x:xmptk="Adobe XMP Core 5.6-c138 79.159824, 2016/09/14-01:09:01        ">
   <rdf:RDF xmlns:rdf="http://www.w3.org/1999/02/22-rdf-syntax-ns#">
      <rdf:Description rdf:about=""/>
   </rdf:RDF>
</x:xmpmeta>
                                                                                                    
                                                                                                    
                                                                                                    
                                                                                                    
                                                                                                    
                                                                                                    
                                                                                                    
                                                                                                    
                                                                                                    
                                                                                                    
                                                                                                    
                                                                                                    
                                                                                                    
                                                                                                    
                                                                                                    
                                                                                                    
                                                                                                    
                                                                                                    
                                                                                                    
                                                                                                    
                           
<?xpacket end="w"?></metadata>
<defs>
    <style>
      .cls-1 {
        fill: #82d5b4;
      }

      .cls-1, .cls-2 {
        fill-rule: evenodd;
      }

      .cls-2 {
        fill: #06ac6a;
      }
    </style>
  </defs>
  <path id="Shape_1_copy_3" data-name="Shape 1 copy 3" class="cls-1" d="M571.164,451.511h-45.6l0.1,77.683-90.735-77.683H236.014a28.9,28.9,0,0,1-28.845-28.951V388.536H394a28.9,28.9,0,0,0,28.845-28.947V164.376H571.164a28.9,28.9,0,0,1,28.845,28.956V422.56A28.9,28.9,0,0,1,571.164,451.511Z"/>
  <path class="cls-2" d="M364,71.405H28.852A28.9,28.9,0,0,0,.006,100.361V329.589a28.9,28.9,0,0,0,28.847,28.947h45.6l-0.1,77.687,90.734-77.687H364a28.9,28.9,0,0,0,28.845-28.947V100.361A28.9,28.9,0,0,0,364,71.405Z"/>
</svg>
