<svg id="icon_2" data-name="icon 2" xmlns="http://www.w3.org/2000/svg" width="600" height="600" viewBox="0 0 600 600">
  <metadata><?xpacket begin="﻿" id="W5M0MpCehiHzreSzNTczkc9d"?>
<x:xmpmeta xmlns:x="adobe:ns:meta/" x:xmptk="Adobe XMP Core 5.6-c138 79.159824, 2016/09/14-01:09:01        ">
   <rdf:RDF xmlns:rdf="http://www.w3.org/1999/02/22-rdf-syntax-ns#">
      <rdf:Description rdf:about=""/>
   </rdf:RDF>
</x:xmpmeta>
                                                                                                    
                                                                                                    
                                                                                                    
                                                                                                    
                                                                                                    
                                                                                                    
                                                                                                    
                                                                                                    
                                                                                                    
                                                                                                    
                                                                                                    
                                                                                                    
                                                                                                    
                                                                                                    
                                                                                                    
                                                                                                    
                                                                                                    
                                                                                                    
                                                                                                    
                                                                                                    
                           
<?xpacket end="w"?></metadata>
<defs>
    <style>
      .cls-1 {
        fill: #7ed2b3;
      }

      .cls-2 {
        fill: #06ac6a;
        fill-rule: evenodd;
      }
    </style>
  </defs>
  <circle class="cls-1" cx="300" cy="300" r="300"/>
  <path class="cls-2" d="M300,505.8A169.251,169.251,0,0,1,149.069,260.061c6.565-14.17,18.849-36.75,36.931-54.261,28.5-27.6,34.8-33,43.2-37.2s6.9,2.4,6,6-8.7,31.5-10.8,51-5.1,64.2,24,66,26.7-85.8,22.2-113.4-16.2-65.4-16.2-65.4-7.8-24,9-16.2,49.8,32.7,67.8,59.4,36.9,69,40.2,96,5.4,53.4,19.8,51,17.4-32.4,13.2-54-15.3-45.3-7.8-48c2.235-.805,6.548,1.695,11.8,6.25l-0.132-.668A169.2,169.2,0,0,1,300,505.8Z"/>
</svg>
