<svg id="icon_1" data-name="icon 1" xmlns="http://www.w3.org/2000/svg" width="600" height="600" viewBox="0 0 600 600">
  <metadata><?xpacket begin="﻿" id="W5M0MpCehiHzreSzNTczkc9d"?>
<x:xmpmeta xmlns:x="adobe:ns:meta/" x:xmptk="Adobe XMP Core 5.6-c138 79.159824, 2016/09/14-01:09:01        ">
   <rdf:RDF xmlns:rdf="http://www.w3.org/1999/02/22-rdf-syntax-ns#">
      <rdf:Description rdf:about=""/>
   </rdf:RDF>
</x:xmpmeta>
                                                                                                    
                                                                                                    
                                                                                                    
                                                                                                    
                                                                                                    
                                                                                                    
                                                                                                    
                                                                                                    
                                                                                                    
                                                                                                    
                                                                                                    
                                                                                                    
                                                                                                    
                                                                                                    
                                                                                                    
                                                                                                    
                                                                                                    
                                                                                                    
                                                                                                    
                                                                                                    
                           
<?xpacket end="w"?></metadata>
<defs>
    <style>
      .cls-1 {
        fill: #7ed2b3;
      }

      .cls-2 {
        fill: #06ac6a;
      }

      .cls-2, .cls-3 {
        fill-rule: evenodd;
      }

      .cls-3 {
        fill: #fff;
      }
    </style>
  </defs>
  <circle class="cls-1" cx="300.5" cy="300.5" r="295.5"/>
  <path class="cls-2" d="M203,512H372l-5-76h63s23.667-3.667,24-28-4-51-4-51l18-10-20-69s11-8.667,9-19-14-57-14-57,23.667-3.333,10-30S385.333,94,283,94,123.333,185,112,239s3,114.667,85,170C197,409,213,410.333,203,512Z"/>
  <path id="Shape_2_copy_5" data-name="Shape 2 copy 5" class="cls-3" d="M309.079,208.485l4.078,18.231-16.217,6.646c-0.05,1.22-.151,2.425-0.277,3.624l14.868,8.743-4.814,18.05-18.709-1.721,0.217-.691c-0.315.5-.668,0.973-1,1.462l8.315,15.953L281.89,291.535l-14.152-10.769c-1.268.708-2.562,1.376-3.887,1.989v16.761l-18,5-7.8-16.565c-1.208-.043-2.409-0.109-3.6-0.224l-9.275,14.787-17.9-5.329,2.185-18.066c-0.629-.4-1.235-0.832-1.847-1.256l-15.241,8.765-13.308-13.111,10.749-15.41,0.138,0.149q-0.8-1.462-1.512-2.978l0.122,0.526h-18l-5-18,17-8,0.462,2c0-.271-0.026-0.536-0.026-0.807,0-1.616.084-3.212,0.216-4.794l-0.363,1-15.11-9.782,5.584-17.827,17.643,2.39c0.585-.986,1.22-1.938,1.862-2.886l-8.591-15.156,13.195-13.226,14.836,10.488c1.217-.679,2.458-1.32,3.728-1.91V163l18-5,7.548,16.039c1.476,0.04,2.932.152,4.378,0.3l8.066-13.97,18.088,4.67-1.5,17.87c0.944,0.6,1.866,1.233,2.771,1.887l14.1-8.138,13.33,13.088-10.3,14.821q0.786,1.5,1.485,3.044ZM240,198a33,33,0,1,0,33,33A33,33,0,0,0,240,198Z"/>
  <path id="Shape_2_copy_6" data-name="Shape 2 copy 6" class="cls-3" d="M382.652,156.285L385,166.861l-9.339,3.855c-0.029.707-.087,1.407-0.159,2.1l8.562,5.072-2.772,10.47-10.775-1,0.125-.4c-0.182.29-.385,0.565-0.575,0.849l4.789,9.253-7.862,7.4-8.151-6.247c-0.73.411-1.475,0.8-2.238,1.154v9.723l-10.367,2.9-4.489-9.609c-0.7-.025-1.388-0.063-2.072-0.13l-5.341,8.578-10.312-3.091,1.258-10.48c-0.362-.232-0.711-0.483-1.063-0.729l-8.778,5.085-7.664-7.606,6.191-8.939,0.079,0.087q-0.461-.849-0.871-1.728l0.07,0.305H302.88L300,173.293l9.79-4.641,0.266,1.162c0-.157-0.015-0.311-0.015-0.468,0-.938.049-1.863,0.125-2.781l-0.209.581-8.7-5.674,3.216-10.341,10.16,1.386c0.337-.572.7-1.124,1.072-1.674l-4.947-8.792,7.6-7.672,8.544,6.084q1.052-.591,2.147-1.108V129.9l10.366-2.9,4.347,9.3c0.85,0.023,1.689.088,2.522,0.175l4.645-8.1,10.417,2.709L360.48,141.45c0.544,0.349,1.075.716,1.6,1.095l8.118-4.721,7.677,7.592-5.932,8.6q0.453,0.867.856,1.765ZM342.869,150.2a19.144,19.144,0,1,0,19,19.143A19.075,19.075,0,0,0,342.869,150.2Z"/>
  <path id="Shape_2_copy_7" data-name="Shape 2 copy 7" class="cls-3" d="M382.652,276.285L385,286.861l-9.339,3.855c-0.029.708-.087,1.407-0.159,2.1l8.562,5.072-2.772,10.471-10.775-1,0.125-.4c-0.182.29-.385,0.565-0.575,0.849l4.789,9.253-7.862,7.4-8.151-6.247c-0.73.411-1.475,0.8-2.238,1.154v9.723l-10.367,2.9-4.489-9.609c-0.7-.025-1.388-0.063-2.072-0.13l-5.341,8.578-10.312-3.091,1.258-10.48c-0.362-.232-0.711-0.483-1.063-0.729l-8.778,5.085-7.664-7.606,6.191-8.939,0.079,0.087q-0.461-.849-0.871-1.728l0.07,0.305H302.88L300,293.293l9.79-4.641,0.266,1.162c0-.157-0.015-0.311-0.015-0.468,0-.938.049-1.863,0.125-2.781l-0.209.581-8.7-5.674,3.216-10.341,10.16,1.386c0.337-.572.7-1.124,1.072-1.674l-4.947-8.792,7.6-7.672,8.544,6.084q1.052-.591,2.147-1.108V249.9l10.366-2.9,4.347,9.3c0.85,0.023,1.689.088,2.522,0.175l4.645-8.1,10.417,2.709L360.48,261.45c0.544,0.349,1.075.716,1.6,1.1l8.118-4.721,7.677,7.592-5.932,8.6q0.453,0.867.856,1.766ZM342.869,270.2a19.144,19.144,0,1,0,19,19.143A19.075,19.075,0,0,0,342.869,270.2Z"/>
  <path id="Shape_2_copy_8" data-name="Shape 2 copy 8" class="cls-3" d="M258.674,325.538L260,331.51l-5.274,2.177c-0.016.4-.049,0.794-0.09,1.187l4.835,2.864-1.565,5.913-6.085-.564,0.071-.226c-0.1.163-.217,0.318-0.325,0.479l2.7,5.225-4.439,4.178-4.6-3.528c-0.412.232-.833,0.451-1.264,0.652v5.49L238.111,357l-2.535-5.426c-0.393-.014-0.784-0.036-1.17-0.074l-3.016,4.844-5.824-1.745,0.711-5.918c-0.2-.131-0.4-0.273-0.6-0.412l-4.957,2.871-4.328-4.294,3.5-5.048,0.045,0.048c-0.174-.319-0.337-0.645-0.492-0.975l0.039,0.172h-5.854l-1.626-5.9,5.529-2.621,0.15,0.656c0-.088-0.008-0.175-0.008-0.264,0-.529.027-1.052,0.07-1.57l-0.118.328-4.914-3.2,1.816-5.84,5.738,0.783c0.19-.323.4-0.635,0.6-0.946l-2.793-4.964,4.291-4.333,4.825,3.436c0.4-.223.8-0.433,1.212-0.626v-5.339L234.257,309l2.455,5.254c0.48,0.013.953,0.05,1.424,0.1l2.623-4.576,5.882,1.529-0.488,5.854c0.307,0.2.607,0.4,0.9,0.618l4.584-2.666,4.335,4.288-3.349,4.855q0.255,0.49.482,1ZM236.208,322.1a10.81,10.81,0,1,0,10.732,10.81A10.771,10.771,0,0,0,236.208,322.1Z"/>
</svg>
