<svg id="icon_2" data-name="icon 2" xmlns="http://www.w3.org/2000/svg" width="600" height="600" viewBox="0 0 600 600">
  <metadata><?xpacket begin="﻿" id="W5M0MpCehiHzreSzNTczkc9d"?>
<x:xmpmeta xmlns:x="adobe:ns:meta/" x:xmptk="Adobe XMP Core 5.6-c138 79.159824, 2016/09/14-01:09:01        ">
   <rdf:RDF xmlns:rdf="http://www.w3.org/1999/02/22-rdf-syntax-ns#">
      <rdf:Description rdf:about=""/>
   </rdf:RDF>
</x:xmpmeta>
                                                                                                    
                                                                                                    
                                                                                                    
                                                                                                    
                                                                                                    
                                                                                                    
                                                                                                    
                                                                                                    
                                                                                                    
                                                                                                    
                                                                                                    
                                                                                                    
                                                                                                    
                                                                                                    
                                                                                                    
                                                                                                    
                                                                                                    
                                                                                                    
                                                                                                    
                                                                                                    
                           
<?xpacket end="w"?></metadata>
<defs>
    <style>
      .cls-1, .cls-4 {
        fill: #a88dea;
      }

      .cls-2 {
        fill: #563c8f;
      }

      .cls-2, .cls-4 {
        fill-rule: evenodd;
      }

      .cls-3 {
        fill: #fff;
      }
    </style>
  </defs>
  <circle id="Ellipse_7_copy_2" data-name="Ellipse 7 copy 2" class="cls-1" cx="300.5" cy="300.5" r="295.5"/>
  <g id="Group_43_copy_2" data-name="Group 43 copy 2">
    <path class="cls-2" d="M433.264,424.328q-27.558-.106-32.2,27.084t-29.777,15.873q-25.132-11.316-40.424,11.632T297.207,481.3q-18.36-20.571-41.655-5.832t-31.71-11.529q-8.415-26.267-35.685-22.287t-24.283-23.442q2.987-27.421-23.544-34.888t-12.658-31.3q13.871-23.835-7.331-41.457t1.155-33.749q22.358-16.128,10.148-40.858t14.769-30.362q26.977-5.631,25.874-33.194t25.829-21.723q26.934,5.84,37.125-19.79t32.423-9.33q22.233,16.3,41.957-2.964t33.411,4.677q13.688,23.943,39.534,14.374t28.622,17.876q2.775,27.444,30.276,29.226t18.884,27.983q-8.618,26.2,15.782,39.026T482.01,285q-18.519,20.428-1.44,42.077t-8.14,32.772q-25.218,11.123-18.413,37.853T433.264,424.328Z"/>
    <circle class="cls-3" cx="306.5" cy="302.5" r="133.5"/>
    <path class="cls-4" d="M306,156A145,145,0,1,1,161,301,145,145,0,0,1,306,156Zm0.5,19A126.5,126.5,0,1,1,180,301.5,126.5,126.5,0,0,1,306.5,175Z"/>
    <path class="cls-4" d="M219,309l58,65s10.75,10.5,20,1,91-119,91-119,4.5-14-3-19-18-1.75-22,4-78,81-78,81l-46-33s-11.8-10.8-20-3S215.6,304.2,219,309Z"/>
  </g>
</svg>
